G04 #@! TF.FileFunction,Copper,L2,Bot,Signal*
%FSLAX46Y46*%
G04 Gerber Fmt 4.6, Leading zero omitted, Abs format (unit mm)*
G04 Created by KiCad (PCBNEW 4.0.6) date 01/08/18 11:39:06*
%MOMM*%
%LPD*%
G01*
G04 APERTURE LIST*
%ADD10C,0.100000*%
%ADD11R,1.700000X1.700000*%
%ADD12O,1.700000X1.700000*%
%ADD13C,1.000000*%
%ADD14C,1.500000*%
%ADD15C,0.600000*%
%ADD16C,0.250000*%
%ADD17C,0.254000*%
G04 APERTURE END LIST*
D10*
D11*
X220980000Y-91440000D03*
D12*
X220980000Y-93980000D03*
X220980000Y-96520000D03*
X220980000Y-99060000D03*
X220980000Y-101600000D03*
D11*
X223520000Y-101600000D03*
D12*
X226060000Y-101600000D03*
X223520000Y-99060000D03*
X226060000Y-99060000D03*
X223520000Y-96520000D03*
X226060000Y-96520000D03*
X223520000Y-93980000D03*
X226060000Y-93980000D03*
X223520000Y-91440000D03*
X226060000Y-91440000D03*
D11*
X183134000Y-84582000D03*
D12*
X183134000Y-87122000D03*
X183134000Y-89662000D03*
X183134000Y-92202000D03*
X183134000Y-94742000D03*
X183134000Y-97282000D03*
D11*
X183134000Y-101092000D03*
D12*
X183134000Y-103632000D03*
X183134000Y-106172000D03*
D13*
X203073000Y-97663000D03*
X205613000Y-97663000D03*
D14*
X196382856Y-106840710D03*
X191502856Y-106840710D03*
D11*
X213614000Y-99568000D03*
D12*
X213614000Y-102108000D03*
X213614000Y-104648000D03*
D15*
X203326270Y-96006581D03*
X213741000Y-89408000D03*
X197739000Y-101600000D03*
X190627000Y-98171000D03*
X186436000Y-99568000D03*
X217932000Y-82423000D03*
X211328000Y-82042000D03*
X193040000Y-102383002D03*
X201930000Y-87884000D03*
X210425558Y-83960442D03*
X201930000Y-91059000D03*
X209296000Y-102489000D03*
X188849000Y-90678000D03*
X210425558Y-90537558D03*
X225552000Y-89662000D03*
X226695000Y-88900000D03*
X198882000Y-91948000D03*
X200428441Y-93032441D03*
X210548037Y-92329223D03*
X210820000Y-96520000D03*
X185293000Y-94996000D03*
X185420000Y-97790000D03*
X186309000Y-103632000D03*
X186309000Y-103632000D03*
X188468000Y-101600000D03*
X196215000Y-91440000D03*
X196215000Y-90180000D03*
X197993000Y-89408000D03*
X194998000Y-95631000D03*
X208807942Y-96500058D03*
X202262559Y-96217559D03*
X208107001Y-87965001D03*
X208407000Y-85979000D03*
X220934001Y-86314001D03*
X218948000Y-86614000D03*
X185928000Y-101600000D03*
X190627000Y-99568000D03*
D16*
X213741000Y-89408000D02*
X217932000Y-85217000D01*
X217932000Y-85217000D02*
X217932000Y-82423000D01*
X197739000Y-101600000D02*
X194310000Y-98171000D01*
X194310000Y-98171000D02*
X190627000Y-98171000D01*
X186436000Y-99568000D02*
X187833000Y-98171000D01*
X187833000Y-98171000D02*
X190627000Y-98171000D01*
X211328000Y-82042000D02*
X211709000Y-82423000D01*
X211709000Y-82423000D02*
X217932000Y-82423000D01*
X193145998Y-102489000D02*
X193040000Y-102383002D01*
X209296000Y-102489000D02*
X193145998Y-102489000D01*
X201930000Y-91059000D02*
X201930000Y-87884000D01*
X210090001Y-103283001D02*
X209296000Y-102489000D01*
X226060000Y-91440000D02*
X227235001Y-92615001D01*
X227235001Y-92615001D02*
X227235001Y-102164001D01*
X227235001Y-102164001D02*
X226116001Y-103283001D01*
X226116001Y-103283001D02*
X210090001Y-103283001D01*
X188849000Y-90678000D02*
X184658000Y-90678000D01*
X184658000Y-90678000D02*
X183134000Y-92202000D01*
X210425558Y-90537558D02*
X210425558Y-83960442D01*
X226695000Y-88900000D02*
X226314000Y-88900000D01*
X226314000Y-88900000D02*
X225552000Y-89662000D01*
X199966441Y-93032441D02*
X198882000Y-91948000D01*
X200428441Y-93032441D02*
X199966441Y-93032441D01*
X210566000Y-95841736D02*
X210566000Y-92347186D01*
X210566000Y-92347186D02*
X210548037Y-92329223D01*
X210820000Y-96520000D02*
X210820000Y-96095736D01*
X210820000Y-96095736D02*
X210566000Y-95841736D01*
X185293000Y-94996000D02*
X185293000Y-97663000D01*
X185293000Y-97663000D02*
X185420000Y-97790000D01*
X188468000Y-101600000D02*
X186436000Y-103632000D01*
X186436000Y-103632000D02*
X186309000Y-103632000D01*
X196215000Y-90180000D02*
X196215000Y-91440000D01*
X196061998Y-89408000D02*
X197993000Y-89408000D01*
X194998000Y-95631000D02*
X194998000Y-90471998D01*
X194998000Y-90471998D02*
X196061998Y-89408000D01*
X202692000Y-96647000D02*
X208807942Y-96500058D01*
X208661000Y-96647000D02*
X208807942Y-96500058D01*
X202262559Y-96217559D02*
X202692000Y-96647000D01*
X208407000Y-85979000D02*
X208107001Y-86278999D01*
X208107001Y-86278999D02*
X208107001Y-87965001D01*
X218948000Y-86614000D02*
X219247999Y-86314001D01*
X219247999Y-86314001D02*
X220934001Y-86314001D01*
X187542998Y-101600000D02*
X185928000Y-101600000D01*
X190627000Y-99568000D02*
X189574998Y-99568000D01*
X189574998Y-99568000D02*
X187542998Y-101600000D01*
D17*
G36*
X227538979Y-79505478D02*
X227716145Y-79623856D01*
X227834521Y-79801019D01*
X227890000Y-80079931D01*
X227890000Y-92253598D01*
X227772402Y-92077600D01*
X227501210Y-91806408D01*
X227574093Y-91440000D01*
X227461054Y-90871715D01*
X227139147Y-90389946D01*
X226657378Y-90068039D01*
X226415758Y-90019978D01*
X226486838Y-89848799D01*
X226486858Y-89825976D01*
X226508201Y-89834838D01*
X226880167Y-89835162D01*
X227223943Y-89693117D01*
X227487192Y-89430327D01*
X227629838Y-89086799D01*
X227630162Y-88714833D01*
X227488117Y-88371057D01*
X227225327Y-88107808D01*
X226881799Y-87965162D01*
X226509833Y-87964838D01*
X226166057Y-88106883D01*
X226087811Y-88184992D01*
X226023161Y-88197852D01*
X225776599Y-88362599D01*
X225412320Y-88726878D01*
X225366833Y-88726838D01*
X225023057Y-88868883D01*
X224759808Y-89131673D01*
X224617162Y-89475201D01*
X224616838Y-89847167D01*
X224758883Y-90190943D01*
X224971505Y-90403936D01*
X224790000Y-90675578D01*
X224599147Y-90389946D01*
X224117378Y-90068039D01*
X223549093Y-89955000D01*
X223490907Y-89955000D01*
X222922622Y-90068039D01*
X222440853Y-90389946D01*
X222440029Y-90391179D01*
X222433162Y-90354683D01*
X222294090Y-90138559D01*
X222081890Y-89993569D01*
X221830000Y-89942560D01*
X220130000Y-89942560D01*
X219894683Y-89986838D01*
X219678559Y-90125910D01*
X219533569Y-90338110D01*
X219482560Y-90590000D01*
X219482560Y-92290000D01*
X219526838Y-92525317D01*
X219665910Y-92741441D01*
X219878110Y-92886431D01*
X219945541Y-92900086D01*
X219900853Y-92929946D01*
X219578946Y-93411715D01*
X219465907Y-93980000D01*
X219578946Y-94548285D01*
X219900853Y-95030054D01*
X220230026Y-95250000D01*
X219900853Y-95469946D01*
X219578946Y-95951715D01*
X219465907Y-96520000D01*
X219578946Y-97088285D01*
X219900853Y-97570054D01*
X220230026Y-97790000D01*
X219900853Y-98009946D01*
X219578946Y-98491715D01*
X219465907Y-99060000D01*
X219578946Y-99628285D01*
X219900853Y-100110054D01*
X220230026Y-100330000D01*
X219900853Y-100549946D01*
X219578946Y-101031715D01*
X219465907Y-101600000D01*
X219578946Y-102168285D01*
X219815959Y-102523001D01*
X215031407Y-102523001D01*
X215055476Y-102464890D01*
X214934155Y-102235000D01*
X213741000Y-102235000D01*
X213741000Y-102255000D01*
X213487000Y-102255000D01*
X213487000Y-102235000D01*
X212293845Y-102235000D01*
X212172524Y-102464890D01*
X212196593Y-102523001D01*
X210404803Y-102523001D01*
X210231122Y-102349320D01*
X210231162Y-102303833D01*
X210089117Y-101960057D01*
X209826327Y-101696808D01*
X209482799Y-101554162D01*
X209110833Y-101553838D01*
X208767057Y-101695883D01*
X208733882Y-101729000D01*
X193708276Y-101729000D01*
X193570327Y-101590810D01*
X193226799Y-101448164D01*
X192854833Y-101447840D01*
X192511057Y-101589885D01*
X192247808Y-101852675D01*
X192105162Y-102196203D01*
X192104838Y-102568169D01*
X192246883Y-102911945D01*
X192509673Y-103175194D01*
X192853201Y-103317840D01*
X193225167Y-103318164D01*
X193392557Y-103249000D01*
X208733537Y-103249000D01*
X208765673Y-103281192D01*
X209109201Y-103423838D01*
X209156077Y-103423879D01*
X209552600Y-103820402D01*
X209799162Y-103985149D01*
X210090001Y-104043001D01*
X212237477Y-104043001D01*
X212212946Y-104079715D01*
X212099907Y-104648000D01*
X212212946Y-105216285D01*
X212534853Y-105698054D01*
X213016622Y-106019961D01*
X213584907Y-106133000D01*
X213643093Y-106133000D01*
X214211378Y-106019961D01*
X214693147Y-105698054D01*
X215015054Y-105216285D01*
X215128093Y-104648000D01*
X215015054Y-104079715D01*
X214990523Y-104043001D01*
X226116001Y-104043001D01*
X226406840Y-103985149D01*
X226653402Y-103820402D01*
X227772402Y-102701402D01*
X227890000Y-102525404D01*
X227890000Y-110420069D01*
X227834521Y-110698981D01*
X227716145Y-110876144D01*
X227538979Y-110994522D01*
X227260070Y-111050000D01*
X181679931Y-111050000D01*
X181401019Y-110994521D01*
X181223856Y-110876145D01*
X181095309Y-110683760D01*
X181050000Y-110503448D01*
X181050000Y-106528890D01*
X181692524Y-106528890D01*
X181862355Y-106938924D01*
X182252642Y-107367183D01*
X182777108Y-107613486D01*
X183007000Y-107492819D01*
X183007000Y-106299000D01*
X183261000Y-106299000D01*
X183261000Y-107492819D01*
X183490892Y-107613486D01*
X184015358Y-107367183D01*
X184245185Y-107114995D01*
X190117616Y-107114995D01*
X190328025Y-107624225D01*
X190717292Y-108014171D01*
X191226154Y-108225469D01*
X191777141Y-108225950D01*
X192286371Y-108015541D01*
X192676317Y-107626274D01*
X192887615Y-107117412D01*
X192887617Y-107114995D01*
X194997616Y-107114995D01*
X195208025Y-107624225D01*
X195597292Y-108014171D01*
X196106154Y-108225469D01*
X196657141Y-108225950D01*
X197166371Y-108015541D01*
X197556317Y-107626274D01*
X197767615Y-107117412D01*
X197768096Y-106566425D01*
X197557687Y-106057195D01*
X197168420Y-105667249D01*
X196659558Y-105455951D01*
X196108571Y-105455470D01*
X195599341Y-105665879D01*
X195209395Y-106055146D01*
X194998097Y-106564008D01*
X194997616Y-107114995D01*
X192887617Y-107114995D01*
X192888096Y-106566425D01*
X192677687Y-106057195D01*
X192288420Y-105667249D01*
X191779558Y-105455951D01*
X191228571Y-105455470D01*
X190719341Y-105665879D01*
X190329395Y-106055146D01*
X190118097Y-106564008D01*
X190117616Y-107114995D01*
X184245185Y-107114995D01*
X184405645Y-106938924D01*
X184575476Y-106528890D01*
X184454155Y-106299000D01*
X183261000Y-106299000D01*
X183007000Y-106299000D01*
X181813845Y-106299000D01*
X181692524Y-106528890D01*
X181050000Y-106528890D01*
X181050000Y-103632000D01*
X181619907Y-103632000D01*
X181732946Y-104200285D01*
X182054853Y-104682054D01*
X182395553Y-104909702D01*
X182252642Y-104976817D01*
X181862355Y-105405076D01*
X181692524Y-105815110D01*
X181813845Y-106045000D01*
X183007000Y-106045000D01*
X183007000Y-106025000D01*
X183261000Y-106025000D01*
X183261000Y-106045000D01*
X184454155Y-106045000D01*
X184575476Y-105815110D01*
X184405645Y-105405076D01*
X184015358Y-104976817D01*
X183872447Y-104909702D01*
X184213147Y-104682054D01*
X184535054Y-104200285D01*
X184648093Y-103632000D01*
X184535054Y-103063715D01*
X184213147Y-102581946D01*
X184171548Y-102554150D01*
X184219317Y-102545162D01*
X184435441Y-102406090D01*
X184580431Y-102193890D01*
X184631440Y-101942000D01*
X184631440Y-101785167D01*
X184992838Y-101785167D01*
X185134883Y-102128943D01*
X185397673Y-102392192D01*
X185741201Y-102534838D01*
X186113167Y-102535162D01*
X186456943Y-102393117D01*
X186490118Y-102360000D01*
X186633198Y-102360000D01*
X186296210Y-102696988D01*
X186123833Y-102696838D01*
X185780057Y-102838883D01*
X185516808Y-103101673D01*
X185374162Y-103445201D01*
X185373838Y-103817167D01*
X185515883Y-104160943D01*
X185778673Y-104424192D01*
X186122201Y-104566838D01*
X186494167Y-104567162D01*
X186837943Y-104425117D01*
X187101192Y-104162327D01*
X187186913Y-103955889D01*
X188607680Y-102535122D01*
X188653167Y-102535162D01*
X188996943Y-102393117D01*
X189260192Y-102130327D01*
X189402838Y-101786799D01*
X189403162Y-101414833D01*
X189261117Y-101071057D01*
X189203980Y-101013820D01*
X189889800Y-100328000D01*
X190064537Y-100328000D01*
X190096673Y-100360192D01*
X190440201Y-100502838D01*
X190812167Y-100503162D01*
X191155943Y-100361117D01*
X191419192Y-100098327D01*
X191561838Y-99754799D01*
X191562162Y-99382833D01*
X191420117Y-99039057D01*
X191157327Y-98775808D01*
X190813799Y-98633162D01*
X190441833Y-98632838D01*
X190098057Y-98774883D01*
X190064882Y-98808000D01*
X189574998Y-98808000D01*
X189284159Y-98865852D01*
X189037597Y-99030599D01*
X187228196Y-100840000D01*
X186490463Y-100840000D01*
X186458327Y-100807808D01*
X186114799Y-100665162D01*
X185742833Y-100664838D01*
X185399057Y-100806883D01*
X185135808Y-101069673D01*
X184993162Y-101413201D01*
X184992838Y-101785167D01*
X184631440Y-101785167D01*
X184631440Y-100242000D01*
X184587162Y-100006683D01*
X184448090Y-99790559D01*
X184235890Y-99645569D01*
X183984000Y-99594560D01*
X182284000Y-99594560D01*
X182048683Y-99638838D01*
X181832559Y-99777910D01*
X181687569Y-99990110D01*
X181636560Y-100242000D01*
X181636560Y-101942000D01*
X181680838Y-102177317D01*
X181819910Y-102393441D01*
X182032110Y-102538431D01*
X182099541Y-102552086D01*
X182054853Y-102581946D01*
X181732946Y-103063715D01*
X181619907Y-103632000D01*
X181050000Y-103632000D01*
X181050000Y-97638890D01*
X181692524Y-97638890D01*
X181862355Y-98048924D01*
X182252642Y-98477183D01*
X182777108Y-98723486D01*
X183007000Y-98602819D01*
X183007000Y-97409000D01*
X181813845Y-97409000D01*
X181692524Y-97638890D01*
X181050000Y-97638890D01*
X181050000Y-87122000D01*
X181619907Y-87122000D01*
X181732946Y-87690285D01*
X182054853Y-88172054D01*
X182384026Y-88392000D01*
X182054853Y-88611946D01*
X181732946Y-89093715D01*
X181619907Y-89662000D01*
X181732946Y-90230285D01*
X182054853Y-90712054D01*
X182384026Y-90932000D01*
X182054853Y-91151946D01*
X181732946Y-91633715D01*
X181619907Y-92202000D01*
X181732946Y-92770285D01*
X182054853Y-93252054D01*
X182384026Y-93472000D01*
X182054853Y-93691946D01*
X181732946Y-94173715D01*
X181619907Y-94742000D01*
X181732946Y-95310285D01*
X182054853Y-95792054D01*
X182395553Y-96019702D01*
X182252642Y-96086817D01*
X181862355Y-96515076D01*
X181692524Y-96925110D01*
X181813845Y-97155000D01*
X183007000Y-97155000D01*
X183007000Y-97135000D01*
X183261000Y-97135000D01*
X183261000Y-97155000D01*
X183281000Y-97155000D01*
X183281000Y-97409000D01*
X183261000Y-97409000D01*
X183261000Y-98602819D01*
X183490892Y-98723486D01*
X184015358Y-98477183D01*
X184405645Y-98048924D01*
X184484941Y-97857476D01*
X184484838Y-97975167D01*
X184626883Y-98318943D01*
X184889673Y-98582192D01*
X185233201Y-98724838D01*
X185605167Y-98725162D01*
X185948943Y-98583117D01*
X186212192Y-98320327D01*
X186354838Y-97976799D01*
X186355162Y-97604833D01*
X186213117Y-97261057D01*
X186053000Y-97100660D01*
X186053000Y-95816167D01*
X194062838Y-95816167D01*
X194204883Y-96159943D01*
X194467673Y-96423192D01*
X194811201Y-96565838D01*
X195183167Y-96566162D01*
X195526943Y-96424117D01*
X195548371Y-96402726D01*
X201327397Y-96402726D01*
X201469442Y-96746502D01*
X201732232Y-97009751D01*
X202058958Y-97145420D01*
X201938197Y-97436244D01*
X201937803Y-97887775D01*
X202110233Y-98305086D01*
X202429235Y-98624645D01*
X202846244Y-98797803D01*
X203297775Y-98798197D01*
X203715086Y-98625767D01*
X204034645Y-98306765D01*
X204207803Y-97889756D01*
X204208197Y-97438225D01*
X204180608Y-97371454D01*
X204508370Y-97363579D01*
X204478197Y-97436244D01*
X204477803Y-97887775D01*
X204650233Y-98305086D01*
X204969235Y-98624645D01*
X205386244Y-98797803D01*
X205837775Y-98798197D01*
X206031865Y-98718000D01*
X212116560Y-98718000D01*
X212116560Y-100418000D01*
X212160838Y-100653317D01*
X212299910Y-100869441D01*
X212512110Y-101014431D01*
X212620107Y-101036301D01*
X212342355Y-101341076D01*
X212172524Y-101751110D01*
X212293845Y-101981000D01*
X213487000Y-101981000D01*
X213487000Y-101961000D01*
X213741000Y-101961000D01*
X213741000Y-101981000D01*
X214934155Y-101981000D01*
X215055476Y-101751110D01*
X214885645Y-101341076D01*
X214609499Y-101038063D01*
X214699317Y-101021162D01*
X214915441Y-100882090D01*
X215060431Y-100669890D01*
X215111440Y-100418000D01*
X215111440Y-98718000D01*
X215067162Y-98482683D01*
X214928090Y-98266559D01*
X214715890Y-98121569D01*
X214464000Y-98070560D01*
X212764000Y-98070560D01*
X212528683Y-98114838D01*
X212312559Y-98253910D01*
X212167569Y-98466110D01*
X212116560Y-98718000D01*
X206031865Y-98718000D01*
X206255086Y-98625767D01*
X206574645Y-98306765D01*
X206747803Y-97889756D01*
X206748197Y-97438225D01*
X206695640Y-97311028D01*
X208256968Y-97273515D01*
X208262808Y-97277417D01*
X208277615Y-97292250D01*
X208297142Y-97300358D01*
X208370161Y-97349148D01*
X208455539Y-97366131D01*
X208621143Y-97434896D01*
X208993109Y-97435220D01*
X209336885Y-97293175D01*
X209600134Y-97030385D01*
X209742780Y-96686857D01*
X209743104Y-96314891D01*
X209601059Y-95971115D01*
X209338269Y-95707866D01*
X208994741Y-95565220D01*
X208622775Y-95564896D01*
X208278999Y-95706941D01*
X208232187Y-95753672D01*
X203133176Y-95876181D01*
X203055676Y-95688616D01*
X202792886Y-95425367D01*
X202449358Y-95282721D01*
X202077392Y-95282397D01*
X201733616Y-95424442D01*
X201470367Y-95687232D01*
X201327721Y-96030760D01*
X201327397Y-96402726D01*
X195548371Y-96402726D01*
X195790192Y-96161327D01*
X195932838Y-95817799D01*
X195933162Y-95445833D01*
X195791117Y-95102057D01*
X195758000Y-95068882D01*
X195758000Y-92262640D01*
X196028201Y-92374838D01*
X196400167Y-92375162D01*
X196743943Y-92233117D01*
X196844067Y-92133167D01*
X197946838Y-92133167D01*
X198088883Y-92476943D01*
X198351673Y-92740192D01*
X198695201Y-92882838D01*
X198742077Y-92882879D01*
X199429040Y-93569842D01*
X199675601Y-93734589D01*
X199841087Y-93767506D01*
X199898114Y-93824633D01*
X200241642Y-93967279D01*
X200613608Y-93967603D01*
X200957384Y-93825558D01*
X201220633Y-93562768D01*
X201363279Y-93219240D01*
X201363603Y-92847274D01*
X201221558Y-92503498D01*
X200958768Y-92240249D01*
X200615240Y-92097603D01*
X200243274Y-92097279D01*
X200146194Y-92137392D01*
X199817122Y-91808320D01*
X199817162Y-91762833D01*
X199675117Y-91419057D01*
X199412327Y-91155808D01*
X199068799Y-91013162D01*
X198696833Y-91012838D01*
X198353057Y-91154883D01*
X198089808Y-91417673D01*
X197947162Y-91761201D01*
X197946838Y-92133167D01*
X196844067Y-92133167D01*
X197007192Y-91970327D01*
X197149838Y-91626799D01*
X197150162Y-91254833D01*
X197008117Y-90911057D01*
X196975000Y-90877882D01*
X196975000Y-90742463D01*
X197007192Y-90710327D01*
X197149838Y-90366799D01*
X197150011Y-90168000D01*
X197430537Y-90168000D01*
X197462673Y-90200192D01*
X197806201Y-90342838D01*
X198178167Y-90343162D01*
X198521943Y-90201117D01*
X198785192Y-89938327D01*
X198927838Y-89594799D01*
X198928162Y-89222833D01*
X198786117Y-88879057D01*
X198523327Y-88615808D01*
X198179799Y-88473162D01*
X197807833Y-88472838D01*
X197464057Y-88614883D01*
X197430882Y-88648000D01*
X196061998Y-88648000D01*
X195819412Y-88696254D01*
X195771158Y-88705852D01*
X195524597Y-88870599D01*
X194460599Y-89934597D01*
X194295852Y-90181159D01*
X194238000Y-90471998D01*
X194238000Y-95068537D01*
X194205808Y-95100673D01*
X194063162Y-95444201D01*
X194062838Y-95816167D01*
X186053000Y-95816167D01*
X186053000Y-95558463D01*
X186085192Y-95526327D01*
X186227838Y-95182799D01*
X186228162Y-94810833D01*
X186086117Y-94467057D01*
X185823327Y-94203808D01*
X185479799Y-94061162D01*
X185107833Y-94060838D01*
X184764057Y-94202883D01*
X184577833Y-94388782D01*
X184535054Y-94173715D01*
X184213147Y-93691946D01*
X183883974Y-93472000D01*
X184213147Y-93252054D01*
X184535054Y-92770285D01*
X184648093Y-92202000D01*
X184575210Y-91835592D01*
X184972802Y-91438000D01*
X188286537Y-91438000D01*
X188318673Y-91470192D01*
X188662201Y-91612838D01*
X189034167Y-91613162D01*
X189377943Y-91471117D01*
X189641192Y-91208327D01*
X189783838Y-90864799D01*
X189784162Y-90492833D01*
X189642117Y-90149057D01*
X189379327Y-89885808D01*
X189035799Y-89743162D01*
X188663833Y-89742838D01*
X188320057Y-89884883D01*
X188286882Y-89918000D01*
X184658000Y-89918000D01*
X184594665Y-89930598D01*
X184648093Y-89662000D01*
X184535054Y-89093715D01*
X184213147Y-88611946D01*
X183883974Y-88392000D01*
X184213147Y-88172054D01*
X184281893Y-88069167D01*
X200994838Y-88069167D01*
X201136883Y-88412943D01*
X201170000Y-88446118D01*
X201170000Y-90496537D01*
X201137808Y-90528673D01*
X200995162Y-90872201D01*
X200994838Y-91244167D01*
X201136883Y-91587943D01*
X201399673Y-91851192D01*
X201743201Y-91993838D01*
X202115167Y-91994162D01*
X202458943Y-91852117D01*
X202722192Y-91589327D01*
X202864838Y-91245799D01*
X202865162Y-90873833D01*
X202723117Y-90530057D01*
X202690000Y-90496882D01*
X202690000Y-88446463D01*
X202722192Y-88414327D01*
X202831880Y-88150168D01*
X207171839Y-88150168D01*
X207313884Y-88493944D01*
X207576674Y-88757193D01*
X207920202Y-88899839D01*
X208292168Y-88900163D01*
X208635944Y-88758118D01*
X208899193Y-88495328D01*
X209041839Y-88151800D01*
X209042163Y-87779834D01*
X208900118Y-87436058D01*
X208867001Y-87402883D01*
X208867001Y-86800603D01*
X208935943Y-86772117D01*
X209199192Y-86509327D01*
X209341838Y-86165799D01*
X209342162Y-85793833D01*
X209200117Y-85450057D01*
X208937327Y-85186808D01*
X208593799Y-85044162D01*
X208221833Y-85043838D01*
X207878057Y-85185883D01*
X207614808Y-85448673D01*
X207472162Y-85792201D01*
X207472079Y-85887549D01*
X207404853Y-85988160D01*
X207347001Y-86278999D01*
X207347001Y-87402538D01*
X207314809Y-87434674D01*
X207172163Y-87778202D01*
X207171839Y-88150168D01*
X202831880Y-88150168D01*
X202864838Y-88070799D01*
X202865162Y-87698833D01*
X202723117Y-87355057D01*
X202460327Y-87091808D01*
X202116799Y-86949162D01*
X201744833Y-86948838D01*
X201401057Y-87090883D01*
X201137808Y-87353673D01*
X200995162Y-87697201D01*
X200994838Y-88069167D01*
X184281893Y-88069167D01*
X184535054Y-87690285D01*
X184648093Y-87122000D01*
X184535054Y-86553715D01*
X184213147Y-86071946D01*
X184171548Y-86044150D01*
X184219317Y-86035162D01*
X184435441Y-85896090D01*
X184580431Y-85683890D01*
X184631440Y-85432000D01*
X184631440Y-84145609D01*
X209490396Y-84145609D01*
X209632441Y-84489385D01*
X209665558Y-84522560D01*
X209665558Y-89975095D01*
X209633366Y-90007231D01*
X209490720Y-90350759D01*
X209490396Y-90722725D01*
X209632441Y-91066501D01*
X209895231Y-91329750D01*
X210206103Y-91458836D01*
X210019094Y-91536106D01*
X209755845Y-91798896D01*
X209613199Y-92142424D01*
X209612875Y-92514390D01*
X209754920Y-92858166D01*
X209806000Y-92909335D01*
X209806000Y-95841736D01*
X209863852Y-96132575D01*
X209928373Y-96229138D01*
X209885162Y-96333201D01*
X209884838Y-96705167D01*
X210026883Y-97048943D01*
X210289673Y-97312192D01*
X210633201Y-97454838D01*
X211005167Y-97455162D01*
X211348943Y-97313117D01*
X211612192Y-97050327D01*
X211754838Y-96706799D01*
X211755162Y-96334833D01*
X211613117Y-95991057D01*
X211545755Y-95923578D01*
X211522148Y-95804896D01*
X211357401Y-95558335D01*
X211326000Y-95526934D01*
X211326000Y-92873754D01*
X211340229Y-92859550D01*
X211482875Y-92516022D01*
X211483199Y-92144056D01*
X211341154Y-91800280D01*
X211078364Y-91537031D01*
X210767492Y-91407945D01*
X210954501Y-91330675D01*
X211217750Y-91067885D01*
X211360396Y-90724357D01*
X211360720Y-90352391D01*
X211218675Y-90008615D01*
X211185558Y-89975440D01*
X211185558Y-86799167D01*
X218012838Y-86799167D01*
X218154883Y-87142943D01*
X218417673Y-87406192D01*
X218761201Y-87548838D01*
X219133167Y-87549162D01*
X219476943Y-87407117D01*
X219740192Y-87144327D01*
X219769394Y-87074001D01*
X220371538Y-87074001D01*
X220403674Y-87106193D01*
X220747202Y-87248839D01*
X221119168Y-87249163D01*
X221462944Y-87107118D01*
X221726193Y-86844328D01*
X221868839Y-86500800D01*
X221869163Y-86128834D01*
X221727118Y-85785058D01*
X221464328Y-85521809D01*
X221120800Y-85379163D01*
X220748834Y-85378839D01*
X220405058Y-85520884D01*
X220371883Y-85554001D01*
X219247999Y-85554001D01*
X218957160Y-85611853D01*
X218856787Y-85678920D01*
X218762833Y-85678838D01*
X218419057Y-85820883D01*
X218155808Y-86083673D01*
X218013162Y-86427201D01*
X218012838Y-86799167D01*
X211185558Y-86799167D01*
X211185558Y-84522905D01*
X211217750Y-84490769D01*
X211360396Y-84147241D01*
X211360720Y-83775275D01*
X211218675Y-83431499D01*
X210955885Y-83168250D01*
X210612357Y-83025604D01*
X210240391Y-83025280D01*
X209896615Y-83167325D01*
X209633366Y-83430115D01*
X209490720Y-83773643D01*
X209490396Y-84145609D01*
X184631440Y-84145609D01*
X184631440Y-83732000D01*
X184587162Y-83496683D01*
X184448090Y-83280559D01*
X184235890Y-83135569D01*
X183984000Y-83084560D01*
X182284000Y-83084560D01*
X182048683Y-83128838D01*
X181832559Y-83267910D01*
X181687569Y-83480110D01*
X181636560Y-83732000D01*
X181636560Y-85432000D01*
X181680838Y-85667317D01*
X181819910Y-85883441D01*
X182032110Y-86028431D01*
X182099541Y-86042086D01*
X182054853Y-86071946D01*
X181732946Y-86553715D01*
X181619907Y-87122000D01*
X181050000Y-87122000D01*
X181050000Y-80079930D01*
X181105478Y-79801021D01*
X181223856Y-79623855D01*
X181401019Y-79505479D01*
X181679931Y-79450000D01*
X227260070Y-79450000D01*
X227538979Y-79505478D01*
X227538979Y-79505478D01*
G37*
X227538979Y-79505478D02*
X227716145Y-79623856D01*
X227834521Y-79801019D01*
X227890000Y-80079931D01*
X227890000Y-92253598D01*
X227772402Y-92077600D01*
X227501210Y-91806408D01*
X227574093Y-91440000D01*
X227461054Y-90871715D01*
X227139147Y-90389946D01*
X226657378Y-90068039D01*
X226415758Y-90019978D01*
X226486838Y-89848799D01*
X226486858Y-89825976D01*
X226508201Y-89834838D01*
X226880167Y-89835162D01*
X227223943Y-89693117D01*
X227487192Y-89430327D01*
X227629838Y-89086799D01*
X227630162Y-88714833D01*
X227488117Y-88371057D01*
X227225327Y-88107808D01*
X226881799Y-87965162D01*
X226509833Y-87964838D01*
X226166057Y-88106883D01*
X226087811Y-88184992D01*
X226023161Y-88197852D01*
X225776599Y-88362599D01*
X225412320Y-88726878D01*
X225366833Y-88726838D01*
X225023057Y-88868883D01*
X224759808Y-89131673D01*
X224617162Y-89475201D01*
X224616838Y-89847167D01*
X224758883Y-90190943D01*
X224971505Y-90403936D01*
X224790000Y-90675578D01*
X224599147Y-90389946D01*
X224117378Y-90068039D01*
X223549093Y-89955000D01*
X223490907Y-89955000D01*
X222922622Y-90068039D01*
X222440853Y-90389946D01*
X222440029Y-90391179D01*
X222433162Y-90354683D01*
X222294090Y-90138559D01*
X222081890Y-89993569D01*
X221830000Y-89942560D01*
X220130000Y-89942560D01*
X219894683Y-89986838D01*
X219678559Y-90125910D01*
X219533569Y-90338110D01*
X219482560Y-90590000D01*
X219482560Y-92290000D01*
X219526838Y-92525317D01*
X219665910Y-92741441D01*
X219878110Y-92886431D01*
X219945541Y-92900086D01*
X219900853Y-92929946D01*
X219578946Y-93411715D01*
X219465907Y-93980000D01*
X219578946Y-94548285D01*
X219900853Y-95030054D01*
X220230026Y-95250000D01*
X219900853Y-95469946D01*
X219578946Y-95951715D01*
X219465907Y-96520000D01*
X219578946Y-97088285D01*
X219900853Y-97570054D01*
X220230026Y-97790000D01*
X219900853Y-98009946D01*
X219578946Y-98491715D01*
X219465907Y-99060000D01*
X219578946Y-99628285D01*
X219900853Y-100110054D01*
X220230026Y-100330000D01*
X219900853Y-100549946D01*
X219578946Y-101031715D01*
X219465907Y-101600000D01*
X219578946Y-102168285D01*
X219815959Y-102523001D01*
X215031407Y-102523001D01*
X215055476Y-102464890D01*
X214934155Y-102235000D01*
X213741000Y-102235000D01*
X213741000Y-102255000D01*
X213487000Y-102255000D01*
X213487000Y-102235000D01*
X212293845Y-102235000D01*
X212172524Y-102464890D01*
X212196593Y-102523001D01*
X210404803Y-102523001D01*
X210231122Y-102349320D01*
X210231162Y-102303833D01*
X210089117Y-101960057D01*
X209826327Y-101696808D01*
X209482799Y-101554162D01*
X209110833Y-101553838D01*
X208767057Y-101695883D01*
X208733882Y-101729000D01*
X193708276Y-101729000D01*
X193570327Y-101590810D01*
X193226799Y-101448164D01*
X192854833Y-101447840D01*
X192511057Y-101589885D01*
X192247808Y-101852675D01*
X192105162Y-102196203D01*
X192104838Y-102568169D01*
X192246883Y-102911945D01*
X192509673Y-103175194D01*
X192853201Y-103317840D01*
X193225167Y-103318164D01*
X193392557Y-103249000D01*
X208733537Y-103249000D01*
X208765673Y-103281192D01*
X209109201Y-103423838D01*
X209156077Y-103423879D01*
X209552600Y-103820402D01*
X209799162Y-103985149D01*
X210090001Y-104043001D01*
X212237477Y-104043001D01*
X212212946Y-104079715D01*
X212099907Y-104648000D01*
X212212946Y-105216285D01*
X212534853Y-105698054D01*
X213016622Y-106019961D01*
X213584907Y-106133000D01*
X213643093Y-106133000D01*
X214211378Y-106019961D01*
X214693147Y-105698054D01*
X215015054Y-105216285D01*
X215128093Y-104648000D01*
X215015054Y-104079715D01*
X214990523Y-104043001D01*
X226116001Y-104043001D01*
X226406840Y-103985149D01*
X226653402Y-103820402D01*
X227772402Y-102701402D01*
X227890000Y-102525404D01*
X227890000Y-110420069D01*
X227834521Y-110698981D01*
X227716145Y-110876144D01*
X227538979Y-110994522D01*
X227260070Y-111050000D01*
X181679931Y-111050000D01*
X181401019Y-110994521D01*
X181223856Y-110876145D01*
X181095309Y-110683760D01*
X181050000Y-110503448D01*
X181050000Y-106528890D01*
X181692524Y-106528890D01*
X181862355Y-106938924D01*
X182252642Y-107367183D01*
X182777108Y-107613486D01*
X183007000Y-107492819D01*
X183007000Y-106299000D01*
X183261000Y-106299000D01*
X183261000Y-107492819D01*
X183490892Y-107613486D01*
X184015358Y-107367183D01*
X184245185Y-107114995D01*
X190117616Y-107114995D01*
X190328025Y-107624225D01*
X190717292Y-108014171D01*
X191226154Y-108225469D01*
X191777141Y-108225950D01*
X192286371Y-108015541D01*
X192676317Y-107626274D01*
X192887615Y-107117412D01*
X192887617Y-107114995D01*
X194997616Y-107114995D01*
X195208025Y-107624225D01*
X195597292Y-108014171D01*
X196106154Y-108225469D01*
X196657141Y-108225950D01*
X197166371Y-108015541D01*
X197556317Y-107626274D01*
X197767615Y-107117412D01*
X197768096Y-106566425D01*
X197557687Y-106057195D01*
X197168420Y-105667249D01*
X196659558Y-105455951D01*
X196108571Y-105455470D01*
X195599341Y-105665879D01*
X195209395Y-106055146D01*
X194998097Y-106564008D01*
X194997616Y-107114995D01*
X192887617Y-107114995D01*
X192888096Y-106566425D01*
X192677687Y-106057195D01*
X192288420Y-105667249D01*
X191779558Y-105455951D01*
X191228571Y-105455470D01*
X190719341Y-105665879D01*
X190329395Y-106055146D01*
X190118097Y-106564008D01*
X190117616Y-107114995D01*
X184245185Y-107114995D01*
X184405645Y-106938924D01*
X184575476Y-106528890D01*
X184454155Y-106299000D01*
X183261000Y-106299000D01*
X183007000Y-106299000D01*
X181813845Y-106299000D01*
X181692524Y-106528890D01*
X181050000Y-106528890D01*
X181050000Y-103632000D01*
X181619907Y-103632000D01*
X181732946Y-104200285D01*
X182054853Y-104682054D01*
X182395553Y-104909702D01*
X182252642Y-104976817D01*
X181862355Y-105405076D01*
X181692524Y-105815110D01*
X181813845Y-106045000D01*
X183007000Y-106045000D01*
X183007000Y-106025000D01*
X183261000Y-106025000D01*
X183261000Y-106045000D01*
X184454155Y-106045000D01*
X184575476Y-105815110D01*
X184405645Y-105405076D01*
X184015358Y-104976817D01*
X183872447Y-104909702D01*
X184213147Y-104682054D01*
X184535054Y-104200285D01*
X184648093Y-103632000D01*
X184535054Y-103063715D01*
X184213147Y-102581946D01*
X184171548Y-102554150D01*
X184219317Y-102545162D01*
X184435441Y-102406090D01*
X184580431Y-102193890D01*
X184631440Y-101942000D01*
X184631440Y-101785167D01*
X184992838Y-101785167D01*
X185134883Y-102128943D01*
X185397673Y-102392192D01*
X185741201Y-102534838D01*
X186113167Y-102535162D01*
X186456943Y-102393117D01*
X186490118Y-102360000D01*
X186633198Y-102360000D01*
X186296210Y-102696988D01*
X186123833Y-102696838D01*
X185780057Y-102838883D01*
X185516808Y-103101673D01*
X185374162Y-103445201D01*
X185373838Y-103817167D01*
X185515883Y-104160943D01*
X185778673Y-104424192D01*
X186122201Y-104566838D01*
X186494167Y-104567162D01*
X186837943Y-104425117D01*
X187101192Y-104162327D01*
X187186913Y-103955889D01*
X188607680Y-102535122D01*
X188653167Y-102535162D01*
X188996943Y-102393117D01*
X189260192Y-102130327D01*
X189402838Y-101786799D01*
X189403162Y-101414833D01*
X189261117Y-101071057D01*
X189203980Y-101013820D01*
X189889800Y-100328000D01*
X190064537Y-100328000D01*
X190096673Y-100360192D01*
X190440201Y-100502838D01*
X190812167Y-100503162D01*
X191155943Y-100361117D01*
X191419192Y-100098327D01*
X191561838Y-99754799D01*
X191562162Y-99382833D01*
X191420117Y-99039057D01*
X191157327Y-98775808D01*
X190813799Y-98633162D01*
X190441833Y-98632838D01*
X190098057Y-98774883D01*
X190064882Y-98808000D01*
X189574998Y-98808000D01*
X189284159Y-98865852D01*
X189037597Y-99030599D01*
X187228196Y-100840000D01*
X186490463Y-100840000D01*
X186458327Y-100807808D01*
X186114799Y-100665162D01*
X185742833Y-100664838D01*
X185399057Y-100806883D01*
X185135808Y-101069673D01*
X184993162Y-101413201D01*
X184992838Y-101785167D01*
X184631440Y-101785167D01*
X184631440Y-100242000D01*
X184587162Y-100006683D01*
X184448090Y-99790559D01*
X184235890Y-99645569D01*
X183984000Y-99594560D01*
X182284000Y-99594560D01*
X182048683Y-99638838D01*
X181832559Y-99777910D01*
X181687569Y-99990110D01*
X181636560Y-100242000D01*
X181636560Y-101942000D01*
X181680838Y-102177317D01*
X181819910Y-102393441D01*
X182032110Y-102538431D01*
X182099541Y-102552086D01*
X182054853Y-102581946D01*
X181732946Y-103063715D01*
X181619907Y-103632000D01*
X181050000Y-103632000D01*
X181050000Y-97638890D01*
X181692524Y-97638890D01*
X181862355Y-98048924D01*
X182252642Y-98477183D01*
X182777108Y-98723486D01*
X183007000Y-98602819D01*
X183007000Y-97409000D01*
X181813845Y-97409000D01*
X181692524Y-97638890D01*
X181050000Y-97638890D01*
X181050000Y-87122000D01*
X181619907Y-87122000D01*
X181732946Y-87690285D01*
X182054853Y-88172054D01*
X182384026Y-88392000D01*
X182054853Y-88611946D01*
X181732946Y-89093715D01*
X181619907Y-89662000D01*
X181732946Y-90230285D01*
X182054853Y-90712054D01*
X182384026Y-90932000D01*
X182054853Y-91151946D01*
X181732946Y-91633715D01*
X181619907Y-92202000D01*
X181732946Y-92770285D01*
X182054853Y-93252054D01*
X182384026Y-93472000D01*
X182054853Y-93691946D01*
X181732946Y-94173715D01*
X181619907Y-94742000D01*
X181732946Y-95310285D01*
X182054853Y-95792054D01*
X182395553Y-96019702D01*
X182252642Y-96086817D01*
X181862355Y-96515076D01*
X181692524Y-96925110D01*
X181813845Y-97155000D01*
X183007000Y-97155000D01*
X183007000Y-97135000D01*
X183261000Y-97135000D01*
X183261000Y-97155000D01*
X183281000Y-97155000D01*
X183281000Y-97409000D01*
X183261000Y-97409000D01*
X183261000Y-98602819D01*
X183490892Y-98723486D01*
X184015358Y-98477183D01*
X184405645Y-98048924D01*
X184484941Y-97857476D01*
X184484838Y-97975167D01*
X184626883Y-98318943D01*
X184889673Y-98582192D01*
X185233201Y-98724838D01*
X185605167Y-98725162D01*
X185948943Y-98583117D01*
X186212192Y-98320327D01*
X186354838Y-97976799D01*
X186355162Y-97604833D01*
X186213117Y-97261057D01*
X186053000Y-97100660D01*
X186053000Y-95816167D01*
X194062838Y-95816167D01*
X194204883Y-96159943D01*
X194467673Y-96423192D01*
X194811201Y-96565838D01*
X195183167Y-96566162D01*
X195526943Y-96424117D01*
X195548371Y-96402726D01*
X201327397Y-96402726D01*
X201469442Y-96746502D01*
X201732232Y-97009751D01*
X202058958Y-97145420D01*
X201938197Y-97436244D01*
X201937803Y-97887775D01*
X202110233Y-98305086D01*
X202429235Y-98624645D01*
X202846244Y-98797803D01*
X203297775Y-98798197D01*
X203715086Y-98625767D01*
X204034645Y-98306765D01*
X204207803Y-97889756D01*
X204208197Y-97438225D01*
X204180608Y-97371454D01*
X204508370Y-97363579D01*
X204478197Y-97436244D01*
X204477803Y-97887775D01*
X204650233Y-98305086D01*
X204969235Y-98624645D01*
X205386244Y-98797803D01*
X205837775Y-98798197D01*
X206031865Y-98718000D01*
X212116560Y-98718000D01*
X212116560Y-100418000D01*
X212160838Y-100653317D01*
X212299910Y-100869441D01*
X212512110Y-101014431D01*
X212620107Y-101036301D01*
X212342355Y-101341076D01*
X212172524Y-101751110D01*
X212293845Y-101981000D01*
X213487000Y-101981000D01*
X213487000Y-101961000D01*
X213741000Y-101961000D01*
X213741000Y-101981000D01*
X214934155Y-101981000D01*
X215055476Y-101751110D01*
X214885645Y-101341076D01*
X214609499Y-101038063D01*
X214699317Y-101021162D01*
X214915441Y-100882090D01*
X215060431Y-100669890D01*
X215111440Y-100418000D01*
X215111440Y-98718000D01*
X215067162Y-98482683D01*
X214928090Y-98266559D01*
X214715890Y-98121569D01*
X214464000Y-98070560D01*
X212764000Y-98070560D01*
X212528683Y-98114838D01*
X212312559Y-98253910D01*
X212167569Y-98466110D01*
X212116560Y-98718000D01*
X206031865Y-98718000D01*
X206255086Y-98625767D01*
X206574645Y-98306765D01*
X206747803Y-97889756D01*
X206748197Y-97438225D01*
X206695640Y-97311028D01*
X208256968Y-97273515D01*
X208262808Y-97277417D01*
X208277615Y-97292250D01*
X208297142Y-97300358D01*
X208370161Y-97349148D01*
X208455539Y-97366131D01*
X208621143Y-97434896D01*
X208993109Y-97435220D01*
X209336885Y-97293175D01*
X209600134Y-97030385D01*
X209742780Y-96686857D01*
X209743104Y-96314891D01*
X209601059Y-95971115D01*
X209338269Y-95707866D01*
X208994741Y-95565220D01*
X208622775Y-95564896D01*
X208278999Y-95706941D01*
X208232187Y-95753672D01*
X203133176Y-95876181D01*
X203055676Y-95688616D01*
X202792886Y-95425367D01*
X202449358Y-95282721D01*
X202077392Y-95282397D01*
X201733616Y-95424442D01*
X201470367Y-95687232D01*
X201327721Y-96030760D01*
X201327397Y-96402726D01*
X195548371Y-96402726D01*
X195790192Y-96161327D01*
X195932838Y-95817799D01*
X195933162Y-95445833D01*
X195791117Y-95102057D01*
X195758000Y-95068882D01*
X195758000Y-92262640D01*
X196028201Y-92374838D01*
X196400167Y-92375162D01*
X196743943Y-92233117D01*
X196844067Y-92133167D01*
X197946838Y-92133167D01*
X198088883Y-92476943D01*
X198351673Y-92740192D01*
X198695201Y-92882838D01*
X198742077Y-92882879D01*
X199429040Y-93569842D01*
X199675601Y-93734589D01*
X199841087Y-93767506D01*
X199898114Y-93824633D01*
X200241642Y-93967279D01*
X200613608Y-93967603D01*
X200957384Y-93825558D01*
X201220633Y-93562768D01*
X201363279Y-93219240D01*
X201363603Y-92847274D01*
X201221558Y-92503498D01*
X200958768Y-92240249D01*
X200615240Y-92097603D01*
X200243274Y-92097279D01*
X200146194Y-92137392D01*
X199817122Y-91808320D01*
X199817162Y-91762833D01*
X199675117Y-91419057D01*
X199412327Y-91155808D01*
X199068799Y-91013162D01*
X198696833Y-91012838D01*
X198353057Y-91154883D01*
X198089808Y-91417673D01*
X197947162Y-91761201D01*
X197946838Y-92133167D01*
X196844067Y-92133167D01*
X197007192Y-91970327D01*
X197149838Y-91626799D01*
X197150162Y-91254833D01*
X197008117Y-90911057D01*
X196975000Y-90877882D01*
X196975000Y-90742463D01*
X197007192Y-90710327D01*
X197149838Y-90366799D01*
X197150011Y-90168000D01*
X197430537Y-90168000D01*
X197462673Y-90200192D01*
X197806201Y-90342838D01*
X198178167Y-90343162D01*
X198521943Y-90201117D01*
X198785192Y-89938327D01*
X198927838Y-89594799D01*
X198928162Y-89222833D01*
X198786117Y-88879057D01*
X198523327Y-88615808D01*
X198179799Y-88473162D01*
X197807833Y-88472838D01*
X197464057Y-88614883D01*
X197430882Y-88648000D01*
X196061998Y-88648000D01*
X195819412Y-88696254D01*
X195771158Y-88705852D01*
X195524597Y-88870599D01*
X194460599Y-89934597D01*
X194295852Y-90181159D01*
X194238000Y-90471998D01*
X194238000Y-95068537D01*
X194205808Y-95100673D01*
X194063162Y-95444201D01*
X194062838Y-95816167D01*
X186053000Y-95816167D01*
X186053000Y-95558463D01*
X186085192Y-95526327D01*
X186227838Y-95182799D01*
X186228162Y-94810833D01*
X186086117Y-94467057D01*
X185823327Y-94203808D01*
X185479799Y-94061162D01*
X185107833Y-94060838D01*
X184764057Y-94202883D01*
X184577833Y-94388782D01*
X184535054Y-94173715D01*
X184213147Y-93691946D01*
X183883974Y-93472000D01*
X184213147Y-93252054D01*
X184535054Y-92770285D01*
X184648093Y-92202000D01*
X184575210Y-91835592D01*
X184972802Y-91438000D01*
X188286537Y-91438000D01*
X188318673Y-91470192D01*
X188662201Y-91612838D01*
X189034167Y-91613162D01*
X189377943Y-91471117D01*
X189641192Y-91208327D01*
X189783838Y-90864799D01*
X189784162Y-90492833D01*
X189642117Y-90149057D01*
X189379327Y-89885808D01*
X189035799Y-89743162D01*
X188663833Y-89742838D01*
X188320057Y-89884883D01*
X188286882Y-89918000D01*
X184658000Y-89918000D01*
X184594665Y-89930598D01*
X184648093Y-89662000D01*
X184535054Y-89093715D01*
X184213147Y-88611946D01*
X183883974Y-88392000D01*
X184213147Y-88172054D01*
X184281893Y-88069167D01*
X200994838Y-88069167D01*
X201136883Y-88412943D01*
X201170000Y-88446118D01*
X201170000Y-90496537D01*
X201137808Y-90528673D01*
X200995162Y-90872201D01*
X200994838Y-91244167D01*
X201136883Y-91587943D01*
X201399673Y-91851192D01*
X201743201Y-91993838D01*
X202115167Y-91994162D01*
X202458943Y-91852117D01*
X202722192Y-91589327D01*
X202864838Y-91245799D01*
X202865162Y-90873833D01*
X202723117Y-90530057D01*
X202690000Y-90496882D01*
X202690000Y-88446463D01*
X202722192Y-88414327D01*
X202831880Y-88150168D01*
X207171839Y-88150168D01*
X207313884Y-88493944D01*
X207576674Y-88757193D01*
X207920202Y-88899839D01*
X208292168Y-88900163D01*
X208635944Y-88758118D01*
X208899193Y-88495328D01*
X209041839Y-88151800D01*
X209042163Y-87779834D01*
X208900118Y-87436058D01*
X208867001Y-87402883D01*
X208867001Y-86800603D01*
X208935943Y-86772117D01*
X209199192Y-86509327D01*
X209341838Y-86165799D01*
X209342162Y-85793833D01*
X209200117Y-85450057D01*
X208937327Y-85186808D01*
X208593799Y-85044162D01*
X208221833Y-85043838D01*
X207878057Y-85185883D01*
X207614808Y-85448673D01*
X207472162Y-85792201D01*
X207472079Y-85887549D01*
X207404853Y-85988160D01*
X207347001Y-86278999D01*
X207347001Y-87402538D01*
X207314809Y-87434674D01*
X207172163Y-87778202D01*
X207171839Y-88150168D01*
X202831880Y-88150168D01*
X202864838Y-88070799D01*
X202865162Y-87698833D01*
X202723117Y-87355057D01*
X202460327Y-87091808D01*
X202116799Y-86949162D01*
X201744833Y-86948838D01*
X201401057Y-87090883D01*
X201137808Y-87353673D01*
X200995162Y-87697201D01*
X200994838Y-88069167D01*
X184281893Y-88069167D01*
X184535054Y-87690285D01*
X184648093Y-87122000D01*
X184535054Y-86553715D01*
X184213147Y-86071946D01*
X184171548Y-86044150D01*
X184219317Y-86035162D01*
X184435441Y-85896090D01*
X184580431Y-85683890D01*
X184631440Y-85432000D01*
X184631440Y-84145609D01*
X209490396Y-84145609D01*
X209632441Y-84489385D01*
X209665558Y-84522560D01*
X209665558Y-89975095D01*
X209633366Y-90007231D01*
X209490720Y-90350759D01*
X209490396Y-90722725D01*
X209632441Y-91066501D01*
X209895231Y-91329750D01*
X210206103Y-91458836D01*
X210019094Y-91536106D01*
X209755845Y-91798896D01*
X209613199Y-92142424D01*
X209612875Y-92514390D01*
X209754920Y-92858166D01*
X209806000Y-92909335D01*
X209806000Y-95841736D01*
X209863852Y-96132575D01*
X209928373Y-96229138D01*
X209885162Y-96333201D01*
X209884838Y-96705167D01*
X210026883Y-97048943D01*
X210289673Y-97312192D01*
X210633201Y-97454838D01*
X211005167Y-97455162D01*
X211348943Y-97313117D01*
X211612192Y-97050327D01*
X211754838Y-96706799D01*
X211755162Y-96334833D01*
X211613117Y-95991057D01*
X211545755Y-95923578D01*
X211522148Y-95804896D01*
X211357401Y-95558335D01*
X211326000Y-95526934D01*
X211326000Y-92873754D01*
X211340229Y-92859550D01*
X211482875Y-92516022D01*
X211483199Y-92144056D01*
X211341154Y-91800280D01*
X211078364Y-91537031D01*
X210767492Y-91407945D01*
X210954501Y-91330675D01*
X211217750Y-91067885D01*
X211360396Y-90724357D01*
X211360720Y-90352391D01*
X211218675Y-90008615D01*
X211185558Y-89975440D01*
X211185558Y-86799167D01*
X218012838Y-86799167D01*
X218154883Y-87142943D01*
X218417673Y-87406192D01*
X218761201Y-87548838D01*
X219133167Y-87549162D01*
X219476943Y-87407117D01*
X219740192Y-87144327D01*
X219769394Y-87074001D01*
X220371538Y-87074001D01*
X220403674Y-87106193D01*
X220747202Y-87248839D01*
X221119168Y-87249163D01*
X221462944Y-87107118D01*
X221726193Y-86844328D01*
X221868839Y-86500800D01*
X221869163Y-86128834D01*
X221727118Y-85785058D01*
X221464328Y-85521809D01*
X221120800Y-85379163D01*
X220748834Y-85378839D01*
X220405058Y-85520884D01*
X220371883Y-85554001D01*
X219247999Y-85554001D01*
X218957160Y-85611853D01*
X218856787Y-85678920D01*
X218762833Y-85678838D01*
X218419057Y-85820883D01*
X218155808Y-86083673D01*
X218013162Y-86427201D01*
X218012838Y-86799167D01*
X211185558Y-86799167D01*
X211185558Y-84522905D01*
X211217750Y-84490769D01*
X211360396Y-84147241D01*
X211360720Y-83775275D01*
X211218675Y-83431499D01*
X210955885Y-83168250D01*
X210612357Y-83025604D01*
X210240391Y-83025280D01*
X209896615Y-83167325D01*
X209633366Y-83430115D01*
X209490720Y-83773643D01*
X209490396Y-84145609D01*
X184631440Y-84145609D01*
X184631440Y-83732000D01*
X184587162Y-83496683D01*
X184448090Y-83280559D01*
X184235890Y-83135569D01*
X183984000Y-83084560D01*
X182284000Y-83084560D01*
X182048683Y-83128838D01*
X181832559Y-83267910D01*
X181687569Y-83480110D01*
X181636560Y-83732000D01*
X181636560Y-85432000D01*
X181680838Y-85667317D01*
X181819910Y-85883441D01*
X182032110Y-86028431D01*
X182099541Y-86042086D01*
X182054853Y-86071946D01*
X181732946Y-86553715D01*
X181619907Y-87122000D01*
X181050000Y-87122000D01*
X181050000Y-80079930D01*
X181105478Y-79801021D01*
X181223856Y-79623855D01*
X181401019Y-79505479D01*
X181679931Y-79450000D01*
X227260070Y-79450000D01*
X227538979Y-79505478D01*
G36*
X226187000Y-93853000D02*
X226207000Y-93853000D01*
X226207000Y-94107000D01*
X226187000Y-94107000D01*
X226187000Y-96393000D01*
X226207000Y-96393000D01*
X226207000Y-96647000D01*
X226187000Y-96647000D01*
X226187000Y-98933000D01*
X226207000Y-98933000D01*
X226207000Y-99187000D01*
X226187000Y-99187000D01*
X226187000Y-101473000D01*
X226207000Y-101473000D01*
X226207000Y-101727000D01*
X226187000Y-101727000D01*
X226187000Y-101747000D01*
X225933000Y-101747000D01*
X225933000Y-101727000D01*
X225913000Y-101727000D01*
X225913000Y-101473000D01*
X225933000Y-101473000D01*
X225933000Y-99187000D01*
X225913000Y-99187000D01*
X225913000Y-98933000D01*
X225933000Y-98933000D01*
X225933000Y-96647000D01*
X225913000Y-96647000D01*
X225913000Y-96393000D01*
X225933000Y-96393000D01*
X225933000Y-94107000D01*
X225913000Y-94107000D01*
X225913000Y-93853000D01*
X225933000Y-93853000D01*
X225933000Y-93833000D01*
X226187000Y-93833000D01*
X226187000Y-93853000D01*
X226187000Y-93853000D01*
G37*
X226187000Y-93853000D02*
X226207000Y-93853000D01*
X226207000Y-94107000D01*
X226187000Y-94107000D01*
X226187000Y-96393000D01*
X226207000Y-96393000D01*
X226207000Y-96647000D01*
X226187000Y-96647000D01*
X226187000Y-98933000D01*
X226207000Y-98933000D01*
X226207000Y-99187000D01*
X226187000Y-99187000D01*
X226187000Y-101473000D01*
X226207000Y-101473000D01*
X226207000Y-101727000D01*
X226187000Y-101727000D01*
X226187000Y-101747000D01*
X225933000Y-101747000D01*
X225933000Y-101727000D01*
X225913000Y-101727000D01*
X225913000Y-101473000D01*
X225933000Y-101473000D01*
X225933000Y-99187000D01*
X225913000Y-99187000D01*
X225913000Y-98933000D01*
X225933000Y-98933000D01*
X225933000Y-96647000D01*
X225913000Y-96647000D01*
X225913000Y-96393000D01*
X225933000Y-96393000D01*
X225933000Y-94107000D01*
X225913000Y-94107000D01*
X225913000Y-93853000D01*
X225933000Y-93853000D01*
X225933000Y-93833000D01*
X226187000Y-93833000D01*
X226187000Y-93853000D01*
M02*
