M48
;DRILL file {KiCad 4.0.6} date 01/08/18 14:17:57
;FORMAT={-:-/ absolute / metric / decimal}
FMAT,2
METRIC,TZ
T1C0.400
T2C0.500
T3C0.800
T4C1.000
%
G90
G05
M71
T1
X185.293Y-94.996
X185.42Y-97.79
X185.928Y-101.6
X186.309Y-103.632
X186.309Y-103.632
X186.436Y-99.568
X188.468Y-101.6
X188.849Y-90.678
X190.627Y-98.171
X190.627Y-99.568
X193.04Y-102.383
X194.998Y-95.631
X196.215Y-90.18
X196.215Y-91.44
X197.739Y-101.6
X197.993Y-89.408
X198.882Y-91.948
X200.428Y-93.032
X201.93Y-87.884
X201.93Y-91.059
X202.263Y-96.218
X203.326Y-96.007
X208.107Y-87.965
X208.407Y-85.979
X208.808Y-96.5
X209.296Y-102.489
X210.426Y-83.96
X210.426Y-90.538
X210.548Y-92.329
X210.82Y-96.52
X211.328Y-82.042
X213.741Y-89.408
X217.932Y-82.423
X218.948Y-86.614
X220.934Y-86.314
X225.552Y-89.662
X226.695Y-88.9
T2
X203.073Y-97.663
X205.613Y-97.663
T3
X191.503Y-106.841
X196.383Y-106.841
T4
X183.134Y-84.582
X183.134Y-87.122
X183.134Y-89.662
X183.134Y-92.202
X183.134Y-94.742
X183.134Y-97.282
X183.134Y-101.092
X183.134Y-103.632
X183.134Y-106.172
X213.614Y-99.568
X213.614Y-102.108
X213.614Y-104.648
X220.98Y-91.44
X220.98Y-93.98
X220.98Y-96.52
X220.98Y-99.06
X220.98Y-101.6
X223.52Y-91.44
X223.52Y-93.98
X223.52Y-96.52
X223.52Y-99.06
X223.52Y-101.6
X226.06Y-91.44
X226.06Y-93.98
X226.06Y-96.52
X226.06Y-99.06
X226.06Y-101.6
T0
M30
